<?xml version="1.0" standalone="no"?>
<!DOCTYPE svg PUBLIC "-//W3C//DTD SVG 1.1//EN" "http://www.w3.org/Graphics/SVG/1.1/DTD/svg11.dtd" >
<svg xmlns="http://www.w3.org/2000/svg" xmlns:xlink="http://www.w3.org/1999/xlink" version="1.1">
<metadata>
Created by FontForge 20170731 at Fri Feb 19 12:18:52 2021
 By Aleksey,,,
copyright missing
</metadata>
<defs>
<font id="Watermelon-Regular" horiz-adv-x="512" >
  <font-face 
    font-family="Watermelon"
    font-weight="400"
    font-stretch="normal"
    units-per-em="2048"
    panose-1="2 0 5 3 0 0 0 0 0 0"
    ascent="1638"
    descent="-410"
    x-height="1171"
    cap-height="1327"
    bbox="2 -201 1688 1544"
    underline-thickness="102"
    underline-position="-409"
    unicode-range="U+000D-20AC"
  />
<missing-glyph horiz-adv-x="745" 
d="M610 0h-542v1364h542v-1364zM135 1296v-1228h408v1228h-408z" />
    <glyph glyph-name=".notdef" horiz-adv-x="745" 
d="M610 0h-542v1364h542v-1364zM135 1296v-1228h408v1228h-408z" />
    <glyph glyph-name="uni0000" 
 />
    <glyph glyph-name="uni0000" 
 />
    <glyph glyph-name="uni000D" unicode="&#xd;" horiz-adv-x="681" 
 />
    <glyph glyph-name="space" unicode=" " 
 />
    <glyph glyph-name="exclam" unicode="!" horiz-adv-x="704" 
d="M406 1532q99 12 163 12q38 0 47 -6q7 -4 7 -25q0 -31 -15 -163q-52 -538 -106 -709l-15 -39h-120q-18 0 -47 -1q-81 -1 -94 20.5t-13 152.5v39q0 127 5 342.5t9 263.5q3 41 15 62q26 36 164 51zM242 541q27 10 69 10q95 0 146 -49t51 -133q0 -90 -63 -151.5t-150 -61.5
q-34 0 -55 8q-58 17 -105 71.5t-47 104.5q0 63 43.5 119.5t110.5 81.5z" />
    <glyph glyph-name="quotedbl" unicode="&#x22;" horiz-adv-x="272" 
d="M137 1532q31 0 49 -14q41 -23 41 -66q0 -22 -12 -39q-9 -14 -29.5 -24.5t-38.5 -10.5q-11 0 11 -22q21 -20 16 -43t-27 -23q-17 0 -53 25q-59 53 -59 115t53 92q13 10 49 10zM338 1522q27 0 41 -6q53 -21 53 -72q0 -46 -45 -66q-5 -3 -9.5 -5.5t-6.5 -3t-2 -1.5
q-8 -6 0 -14q10 -7 10 -25q0 -35 -29 -35q-37 0 -73.5 42.5t-36.5 86.5q0 20 10 45q33 54 88 54z" />
    <glyph glyph-name="numbersign" unicode="#" horiz-adv-x="1323" 
d="M373 1327q12 12 57 12q41 0 133 -10.5t99 -19.5q4 -12 4 -35v-21q-2 -10 -2 -22l-7 -68l66 -6q10 -2 39 -2q27 0 29 2q3 3 12 70q9 66 12 69q7 7 82 12t133 5q43 0 56.5 -8t13.5 -33v-12q-2 -6 -2 -15q-3 -65 -6 -71l-2 -27l49 -4q46 -5 53 -11q11 -8 14 -58q3 -37 4 -48
q9 -89 9 -133q0 -10 -2 -16v-5q-7 -10 -76 -16q-13 -1 -31.5 -3t-25 -1.5t-18 -3t-14 -4t-8.5 -7.5t-6.5 -11t-2 -17t-1.5 -22.5v-30.5q0 -32 8.5 -37.5t61.5 -5.5q49 0 63 -11t19 -53v-24q0 -47 -6 -116.5t-11 -74.5q-4 -4 -102 -4h-41q-50 0 -57 -5q-7 -6 -11 -43
q-1 -12 -2 -20q-5 -35 -16 -83l-10 -27l-78 6q-169 9 -195 35q-10 10 -10 29q0 15 4 43q13 68 15 75q2 12 -2 17q-11 0 -48 -6.5t-43 -14.5q-8 -8 -14 -59q-15 -92 -27 -113q-13 -22 -59 -22q-19 0 -106.5 8.5t-96.5 13.5q-12 6 -12 39q0 18 10 90q2 9 4 20t3.5 15t1.5 10.5
t-0.5 8t-4 5t-7 3.5t-12.5 1t-17 1t-24 0.5t-30 1.5q-52 3 -67 6q-19 3 -27 12.5t-8 32.5q0 31 2 43q9 153 41 190q17 17 55 17h23q10 -2 24 -2l90 -4l2 47q0 4 1 12q4 32 -4 38q-9 8 -75 14l-1 1h-1h-1h-1h-2q-69 9 -83 19q-9 9 -9 28q0 26 11 134t20 120q9 9 45 9
q30 0 55 -2q37 -3 50 -3q20 0 20 5q0 29 11.5 86t19.5 65zM758 893q-7 0 -15 2q-20 0 -38 2q-8 1 -24 2t-22 2l-92 6l-8 -22q-10 -33 -10 -107v-86l96 -6h33q12 -2 27 -2q41 0 45 4q12 12 12 154q0 47 -4 51z" />
    <glyph glyph-name="dollar" unicode="$" horiz-adv-x="993" 
d="M563 1436q12 18 39 18q15 0 65 -14.5t60 -22.5q10 -10 10 -41v-18q-3 -51 8 -55q20 -6 84.5 -45.5t75.5 -51.5q16 -16 4 -53q-12 -41 -42.5 -87.5t-47.5 -51.5h-6q-23 0 -74 26q-17 8 -33 15.5t-22.5 10.5t-7.5 3q-2 0 -29 -106q-3 -14 6 -17q7 -7 37 -16
q98 -30 157.5 -109t59.5 -174q0 -101 -57.5 -166t-142.5 -100q-76 -29 -136 -29q-20 0 -26 -6t-13 -37q-11 -43 -22 -65q-10 -17 -31 -17q-27 0 -37 2q-69 10 -86 17q-18 7 -23 15.5t-5 29.5q0 33 8 69l8 37l-37 17q-40 16 -45 16q-14 0 -75 38t-93 67q-39 33 -39 49
q0 23 59.5 105.5t73.5 82.5t70 -39q97 -63 125 -63q8 0 19.5 40t11.5 66q0 13 -2 15q-3 13 -41 22q-151 47 -201 150q-16 37 -16 112q0 55 4 73t22 50q70 128 285 143q61 4 73.5 12.5t12.5 45.5q0 22 12 37zM473 1055q9 52 6 55q-4 4 -22 -14q-27 -27 -27 -62q0 -27 19 -30
q8 -3 14 10q5 14 10 41zM610 657q0 30 -8 33h-2q-16 0 -16 -65q0 -18 14 -7q12 12 12 39z" />
    <glyph glyph-name="percent" unicode="%" horiz-adv-x="1251" 
d="M793 1352q25 32 47 32h8q2 -2 8 -2q36 -4 109 -43t73 -53q0 -22 -116 -180q-128 -172 -199 -291q-142 -237 -274 -422q-73 -103 -95 -125q-18 -18 -45 -18q-20 0 -71 22t-86 47q-23 16 -23 35q0 24 74 133q202 292 377 564q152 240 213 301zM238 1219q23 10 51 10
q91 0 141 -92q23 -44 23 -78q0 -55 -45.5 -100.5t-114.5 -45.5q-80 0 -118 45t-38 107q0 41 15 68q27 59 86 86zM868 754q37 16 72 16q76 0 126 -45.5t50 -116.5q0 -45 -20 -84q-51 -100 -166 -100q-112 0 -160 88q-20 33 -20 61q0 50 34.5 102.5t83.5 78.5z" />
    <glyph glyph-name="ampersand" unicode="&#x26;" horiz-adv-x="1298" 
d="M367 1335q81 37 155 37h23q93 -1 173 -56.5t120 -137.5q22 -49 22 -121q0 -73 -18 -112t-80 -99l-62 -62l45 -47q43 -43 54 -43h2q3 2 49 70q49 71 53 72h4q24 0 121.5 -34.5t110.5 -47.5q15 -15 6 -41q-7 -20 -66 -107q-63 -92 -63 -104q0 -15 104 -103
q107 -88 107 -108q0 -15 -31 -21q-36 -6 -121 -12q-80 -5 -151 -16q-20 -4 -41 -4q-35 0 -54 32q-21 27 -30 27t-49 -21q-94 -49 -224 -49q-84 0 -170 25q-205 61 -264 182q-22 49 -22 107t20.5 102t65.5 94q44 51 80 72q38 23 38 43q0 9 -8 14q-12 8 -32.5 58.5t-24.5 85.5
q-2 6 -2 32q0 91 45.5 174.5t114.5 118.5zM592 1122q-22 16 -51 4q-47 -21 -47 -94q0 -29 12 -47l14 -16l29 22q61 49 61 96q0 23 -18 35zM596 502l-72 71q-72 72 -86 72q-19 0 -37 -25.5t-18 -50.5q0 -86 123 -86q30 0 67 11z" />
    <glyph glyph-name="quotesingle" unicode="'" horiz-adv-x="210" 
d="M45 1395q20 14 51 14q67 0 101 -61q12 -24 12 -58q0 -58 -24 -88.5t-70 -52.5q-43 -19 -64 -19q-41 0 -41 37q0 29 31 45q48 21 8 31q-17 5 -32 28t-15 46q0 51 43 78z" />
    <glyph glyph-name="parenleft" unicode="(" horiz-adv-x="704" 
d="M319 1368q53 47 70 47q29 0 104.5 -61t75.5 -84q0 -18 -32 -56q-67 -87 -94 -185t-27 -247q0 -85 10 -153q28 -161 115 -293q28 -48 28 -57q0 -18 -106.5 -85t-130.5 -67q-32 0 -88 111q-115 228 -115 567q0 222 80 395q51 112 110 168z" />
    <glyph glyph-name="parenright" unicode=")" horiz-adv-x="722" 
d="M287 1413q13 8 26 8q21 0 56 -35q118 -124 186 -380q3 -9 8 -28t8 -28q2 -8 4.5 -17t4 -13.5t2.5 -6.5q8 -32 8 -79v-82q0 -134 -17 -207q-57 -219 -180 -363q-29 -35 -40 -42t-34 -7h-8q-56 2 -115 37.5t-59 67.5q0 15 43 88q71 120 100 220t29 214q0 237 -121 430
q-11 16 -41 70l-14 26l35 31q84 78 119 96z" />
    <glyph glyph-name="asterisk" unicode="*" horiz-adv-x="813" 
d="M326 1374q4 63 27 84t85 21q49 0 60.5 -13.5t11.5 -70.5q0 -25 2 -31q0 -12 2 -16q1 -5 4 -5h6q49 19 97 19h8q2 -2 6 -2q19 -4 32 -35t13 -68q0 -31 -12.5 -43.5t-59.5 -29.5q-39 -14 -39 -25q0 -7 33 -49q31 -42 31 -68q0 -27 -41 -52t-70 -25q-28 0 -61 36
q-35 35 -41 35t-47 -47q-35 -40 -56 -51h-4q-2 -2 -6 -2q-30 0 -72 29.5t-42 50.5q0 17 34 69q35 53 35 60t-33 16q-81 21 -92 35q-6 6 -6 29q0 47 21 88q11 24 17.5 29.5t25.5 5.5t63 -13q42 -10 47 -10q18 0 21 49z" />
    <glyph glyph-name="plus" unicode="+" horiz-adv-x="968" 
d="M420 1071q21 8 90 8q59 0 78.5 -15.5t19.5 -49.5q0 -44 -2 -62l-4 -90l103 2h59q42 0 58 -15.5t16 -49.5q0 -31 -2 -43q-2 -31 -2.5 -43t-6.5 -28t-11.5 -19.5t-23 -9.5t-34.5 -7.5t-53 -3.5l-99 -6q-2 0 -2 -80q0 -29 -0.5 -48t-2.5 -36t-5.5 -26t-9.5 -17.5t-14 -10.5
t-19 -5.5t-25 -1.5t-32 0h-21h-20h-41t-26 5.5t-17.5 9t-7.5 21.5t-4 31t-1 49q0 19 0.5 41t2 30t-1.5 18.5t-4 12t-11.5 5t-18 3t-30 0t-41.5 1.5q-84 3 -102 12q-21 9 -21 52q0 35 2 47q3 79 12 94t33 22q50 7 98 9l91 6l4 73q3 60 14 86q9 20 35 29z" />
    <glyph glyph-name="comma" unicode="," horiz-adv-x="382" 
d="M131 442q29 11 53 11q47 0 74 -21q68 -47 68 -131q0 -43 -21 -84q-41 -81 -139 -108q-42 -11 -51 -11q-39 0 -39 43q0 27 8.5 40t36.5 26q26 12 26 16q0 7 -24 19q-62 30 -62 96q0 70 70 104z" />
    <glyph glyph-name="hyphen" unicode="-" horiz-adv-x="841" 
d="M172 795q37 6 264 6h244l12 -21q11 -19 17 -108q2 -16 2 -58q0 -34 -11 -45q-12 -8 -142 -16t-245 -8q-109 0 -133 8q-27 11 -38.5 37.5t-12.5 87.5v31q0 44 9 63t34 23z" />
    <glyph glyph-name="period" unicode="." horiz-adv-x="559" 
d="M213 537q25 14 63 14q65 0 108.5 -50t43.5 -110q0 -63 -42 -108t-107 -45q-58 0 -104 42.5t-46 110.5q0 105 84 146z" />
    <glyph glyph-name="slash" unicode="/" horiz-adv-x="964" 
d="M516 1393l25 22l129 -2q129 -3 143 -10q12 -9 12 -21q0 -13 -115 -388t-167 -531q-86 -266 -113 -293q-11 -11 -92.5 -20t-142.5 -9q-58 0 -58 15q0 28 51 204l56 197q76 277 102 361q43 145 96 301t74 174z" />
    <glyph glyph-name="zero" unicode="0" horiz-adv-x="1275" 
d="M567 1327q61 12 123 12q141 0 257 -65.5t171 -177.5q56 -109 56 -217q0 -31 -11 -103q-29 -159 -119 -293q-14 -18 -28 -41t-15 -24q-3 -7 -14 -19q-7 -10 -31 -30q-144 -123 -325 -123q-212 0 -387 166q-142 133 -142 360q0 114 37.5 209t126.5 184q73 73 137 107.5
t164 54.5zM731 1016q-28 14 -67 14q-48 0 -82 -24q-103 -74 -103 -252q0 -129 53 -176q27 -27 62 -27q80 0 168 111q28 39 31 53l12 49q6 21 6 63q0 73 -12 111q-7 25 -27.5 47.5t-40.5 30.5z" />
    <glyph glyph-name="one" unicode="1" horiz-adv-x="817" 
d="M379 1360q13 8 59 8q52 0 154 -11.5t113 -23.5q10 -17 10 -196v-133q-2 -72 -2 -187q-3 -469 -13 -514q-16 -51 -77 -51l-103 4q-106 3 -133 12q-29 7 -37 26.5t-8 67.5l4 140q4 184 4 291q0 225 -6 231q-5 5 -51 -29q-35 -24 -52 -31.5t-33.5 -3.5t-37.5 25
q-68 74 -68 111q0 32 103.5 125.5t173.5 138.5z" />
    <glyph glyph-name="two" unicode="2" horiz-adv-x="1118" 
d="M469 1362q44 12 94 12q91 0 181 -34t147 -91q104 -104 104 -262q0 -93 -45 -177t-157 -173q-91 -72 -91 -80l3 -2h4q14 0 98 8q62 6 98 6q55 0 76 -18t29 -70q6 -43 6 -96q0 -89 -15 -104q-20 -20 -524 -23l-342 -4l-16 20q-17 20 -17 84q0 74 5 113.5t35 76.5t59 56
t110 67q32 19 49 29q115 67 173.5 118.5t89.5 111.5q18 34 18 61q0 28 -22 52t-41 24q-8 0 -48 -16q-35 -15 -71 -66q-41 -50 -49 -53l-2 -2h-7q-35 0 -113 45t-102 78q-12 18 -12 34q0 13 19 56q81 166 276 219z" />
    <glyph glyph-name="three" unicode="3" horiz-adv-x="1028" 
d="M395 1337q34 6 86 6q93 0 146 -16q163 -52 225 -176q18 -40 18 -98q0 -59 -17.5 -96t-61.5 -76l-43 -41l43 -27q121 -77 133 -211q0 -6 2 -12v-15q0 -96 -61.5 -172.5t-170.5 -117.5q-95 -39 -205 -39q-79 0 -171 29.5t-154 71.5t-62 75q0 30 51.5 117t71.5 88h2
q4 0 70 -29q92 -47 164 -47q47 0 79.5 17t32.5 42q0 32 -45.5 54t-109.5 22q-37 0 -45 2q-13 0 -25.5 7t-13.5 18q-2 6 -2 35q0 12 2 22v27q2 80 13.5 97t72.5 24q123 15 123 71q0 13 -2 17q-12 43 -97 43q-48 0 -96 -23q-42 -22 -53 -22q-6 0 -14 8q-8 11 -38 110t-30 117
q0 26 55 53q66 32 127 45z" />
    <glyph glyph-name="four" unicode="4" horiz-adv-x="1280" 
d="M616 1341q20 13 46 13q28 0 38 -2l70 -4q34 -1 109 -7q60 -2 100 -8q45 -11 45 -57q0 -16 2 -41q1 -14 2 -48.5t2 -51.5q1 -21 2 -61t2 -60q9 -226 21 -244q5 -8 22 -8h8q56 0 74.5 -25t18.5 -100q0 -152 -25 -188q-9 -15 -39 -15h-24q-50 5 -57.5 -2t-14.5 -67
q-8 -55 -25 -78l-16 -19h-162q-159 0 -172 13q-11 11 -20 84q-9 68 -13 81q-6 9 -241 9t-252 10q-15 9 -15 43q0 162 15 199l80 102q120 152 206 270q177 242 213 262zM664 954q-3 37 -9 37q-4 0 -66.5 -75t-94.5 -119q-31 -42 -31 -56q0 -8 100 -8h1h1h1h1h1h1h1h1h2
q81 0 93 7q10 7 9 38v3l-1 24q0 51 -10 149z" />
    <glyph glyph-name="five" unicode="5" horiz-adv-x="1001" 
d="M293 1315q14 2 84 2q65 0 270 -10q123 -9 168 -9q56 0 66 -10q18 -18 18 -139q0 -83 -16 -105l-11 -16l-167 4q-35 0 -58 2h-45q-54 0 -74 -4q-16 -6 -16 -22q0 -20 61 -23q80 -6 158.5 -33.5t116.5 -83.5q29 -43 39 -82t10 -112q0 -139 -59 -232q-20 -32 -63 -73
t-75 -60q-30 -15 -30 -24q0 -7 -56.5 -27.5t-93.5 -26.5q-34 -6 -67 -6q-164 0 -303 144q-48 48 -48 69q0 20 51 89t74 81q12 9 47 -22q60 -51 119 -51q47 0 93 30.5t46 69.5q0 14 -2 18q-18 58 -63.5 82.5t-140.5 24.5h-25q-12 -2 -29 -2q-23 -2 -71 -2q-30 0 -37.5 9
t-7.5 50q0 74 2 109q9 324 57 372q16 16 78 19z" />
    <glyph glyph-name="six" unicode="6" horiz-adv-x="1161" 
d="M369 1237q123 72 295 72q153 0 274 -56q63 -26 63 -53q0 -17 -32.5 -95.5t-44.5 -90.5q-8 -8 -21 -8q-9 0 -61 12q-47 12 -94 12q-63 0 -105.5 -19t-89.5 -59q-43 -34 -43 -43q3 -3 16 0q17 3 35 11q71 22 131 22q90 0 180 -43q187 -88 187 -287v-26q-7 -89 -80.5 -171.5
t-184 -132t-223.5 -49.5q-45 0 -86 9q-92 18 -180 89t-141 181q-62 127 -62 258q0 108 36.5 192.5t105.5 165.5q64 74 125 109zM672 702q-29 11 -51 11q-38 0 -72.5 -26t-34.5 -62q0 -26 31 -47t69 -21q7 0 9 2h8q74 9 74 78q0 51 -33 65z" />
    <glyph glyph-name="seven" unicode="7" horiz-adv-x="1040" 
d="M233 1292q78 4 353 4h135q122 0 168 -4q32 -6 41 -26q8 -16 8 -131q0 -85 -7.5 -122t-43.5 -108q-97 -192 -238 -403t-196 -248q-20 -14 -47 -14q-35 0 -139 20.5t-134 32.5q-31 9 -31 31q0 15 74 118q88 129 208 337t120 231q0 7 -160 10q-132 3 -156 8q-32 6 -42.5 30
t-10.5 93q0 61 8.5 88.5t28.5 40.5q15 9 61 12z" />
    <glyph glyph-name="eight" unicode="8" horiz-adv-x="1210" 
d="M555 1339q54 7 94 7q138 0 249 -52.5t153 -142.5q20 -39 20 -109q0 -141 -117 -233l-34 -27l41 -24q85 -50 126 -131q21 -44 21 -101q0 -50 -23 -98q-44 -75 -141 -123q-140 -67 -352 -67q-320 0 -434 159q-56 77 -56 162q0 94 66 166q18 21 68 61l34 27l-34 37
q-68 71 -68 166q0 58 22 104q93 178 365 219zM725 1010q0 33 -19 53t-51 20q-42 0 -74 -26.5t-32 -57.5q0 -20 14 -34q34 -37 80 -37q33 0 57.5 23t24.5 59zM655 670q-21 6 -41 6q-54 0 -96.5 -28.5t-42.5 -63.5q0 -13 4 -21q24 -53 99 -53q72 0 106 57q14 25 14 49
q0 42 -43 54z" />
    <glyph glyph-name="nine" unicode="9" horiz-adv-x="1204" 
d="M471 1352q31 8 100 8h43q122 -5 192.5 -33t139.5 -100q143 -143 156 -379v-39q0 -115 -42.5 -219.5t-119.5 -185.5t-194.5 -129t-258.5 -48q-84 0 -169.5 21.5t-145.5 56.5q-61 34 -61 62q0 12 57 110t74 115q11 11 17.5 11.5t33.5 -9.5q59 -21 125 -21q68 0 129 23
q57 20 57 29q0 6 -43 6h-22q-10 -2 -27 -2h-43q-174 0 -266 86q-43 38 -72 109t-29 137q0 123 110.5 239.5t258.5 151.5zM692 971q-33 45 -88 45q-53 0 -88 -47q-16 -22 -16 -37q0 -26 28 -50t68 -24q42 0 71 26.5t29 67.5q0 3 -4 19z" />
    <glyph glyph-name="colon" unicode=":" horiz-adv-x="528" 
d="M229 1081q20 4 33 4q36 0 58.5 -10t48.5 -39q25 -28 28 -47q2 -4 2 -24q0 -58 -30.5 -93.5t-94.5 -35.5q-73 0 -112 57q-19 28 -19 59q0 42 24 79t62 50zM227 702q17 7 35 7q67 0 98 -36t31 -89q0 -41 -14 -66q-35 -68 -109 -74h-18q-30 0 -57 21q-64 46 -64 102
q0 26 14 58q27 59 84 77z" />
    <glyph glyph-name="semicolon" unicode=";" horiz-adv-x="540" 
d="M207 868q26 13 55 13q58 0 105 -41t47 -97q0 -32 -15 -59q-41 -86 -133 -86q-53 0 -93 33.5t-46 87.5v18q0 90 80 131zM141 283q0 57 38.5 102t92.5 45q27 0 54 -12q86 -41 86 -152q0 -109 -103 -174q-56 -39 -108 -39h-6l-33 2l-2 37v19q0 44 35 53q34 9 34 22
q0 14 -30 23q-19 6 -38.5 30.5t-19.5 43.5z" />
    <glyph glyph-name="less" unicode="&#x3c;" horiz-adv-x="1056" 
d="M770 1114q7 2 38 0.5t38 -6.5q9 -9 24 -43q21 -41 43 -102q13 -37 13 -52t-13 -22q-11 -8 -45 -17q-57 -13 -182 -48.5t-125 -39.5q0 -2 86 -32q65 -27 170 -64l86 -33q17 -10 17 -45q0 -58 -46 -151q-13 -28 -23.5 -36.5t-29.5 -8.5q-26 0 -227 75q-210 77 -320 113
q-102 35 -121 50q-22 18 -24 62v29v25q0 144 29 154q46 18 290 94.5t322 97.5z" />
    <glyph glyph-name="equal" unicode="=" horiz-adv-x="997" 
d="M203 1026q18 6 116 6h68q35 -2 84 -2q339 -3 363 -20q22 -16 22 -111q0 -58 -12 -82q-8 -13 -35 -20q-35 -9 -272 -9q-233 0 -306 9q-57 8 -70.5 23.5t-13.5 78.5q0 109 56 127zM334 721q90 0 332 4l165 2l19 -20q18 -18 18 -74q0 -40 -10 -92q-1 -3 -2 -8.5t-2 -7.5
t-2 -5.5t-1.5 -5t-2 -4t-3 -3.5t-3.5 -2.5t-5 -3t-6 -2.5t-8 -3q-21 -9 -57 -9q-23 -2 -109 -2h-157q-293 0 -330 11q-43 15 -43 96v26q3 58 23 82q14 14 36 17q4 1 148 4z" />
    <glyph glyph-name="greater" unicode="&#x3e;" horiz-adv-x="1062" 
d="M215 1102q18 24 41 24q15 0 76 -22l92 -33q63 -26 139 -51q342 -120 359 -133q8 -5 8 -43q0 -40 -2 -56q-4 -98 -13 -120q-11 -32 -56 -53q-10 -4 -159 -61q-15 -5 -30 -11q-203 -79 -303 -111q-100 -35 -138 -35q-27 0 -39 21q-14 32 -37.5 116.5t-23.5 106.5
q0 19 31 31q25 10 174 55q139 41 139 45q0 6 -135 53q-122 47 -154 64t-32 45q0 25 22 83.5t41 84.5z" />
    <glyph glyph-name="question" unicode="?" horiz-adv-x="1040" 
d="M453 1343q46 11 92 11q76 0 117.5 -14.5t97.5 -57.5t82 -82q63 -86 63 -194q0 -183 -164 -291q-57 -39 -80 -65t-36 -68q-13 -35 -23 -44.5t-39 -9.5q-22 0 -120.5 12t-118.5 17q-31 7 -31 41q0 17 27 100t45 105q21 28 73 53q50 25 71.5 46.5t25.5 53.5q0 5 2 9v6
q0 53 -54 53q-43 0 -116 -104q-24 -35 -37 -35q-4 0 -6 2h-7q-38 6 -145 104q-37 34 -37 56q0 17 25 65q41 75 125 141.5t168 89.5zM379 481q18 6 43 6q70 0 119 -40.5t49 -124.5q0 -35 -8 -54q-13 -42 -60.5 -72t-97.5 -30q-72 0 -116.5 45t-45.5 123v14q0 38 21 62
q38 56 96 71z" />
    <glyph glyph-name="at" unicode="@" horiz-adv-x="1263" 
d="M549 1298q65 15 125 15q42 0 110 -10q308 -53 387 -342q17 -66 17 -146q0 -82 -23 -156q-77 -226 -256 -235h-20q-128 0 -201 102q-28 39 -33 49q0 3 -6 3q-16 -4 -39 -17q-40 -18 -63 -18h-19q-129 12 -141 137v18q0 56 21 120t53 100q51 57 125 57q28 0 59 -17
q28 -16 31 -10q6 21 20 27q12 5 60 8q12 0 22 2h19q49 0 55 -16v-11q0 -50 -8 -102q-10 -95 -10 -115q0 -43 14 -57q12 -12 21 -10t28 22q41 50 41 135q0 103 -80.5 179.5t-206.5 76.5q-152 0 -250 -110q-44 -49 -73 -130t-29 -155q0 -92 37 -147q64 -94 256 -94
q72 0 86.5 -10t34.5 -72q24 -73 24 -103q0 -19 -8 -24q-11 -8 -75.5 -18.5t-106.5 -10.5q-104 0 -203.5 43.5t-155.5 112.5q-105 128 -120 323v19q-2 8 -2 18q0 283 251 461q117 81 232 108zM616 791q0 30 -2 34q-4 3 -16 6h-4q-23 0 -43.5 -24.5t-20.5 -50.5t14 -37.5
t29 -11.5q40 0 43 84z" />
    <glyph glyph-name="A" unicode="A" horiz-adv-x="1253" 
d="M442 1309q23 10 68 10q225 0 268 -21q22 -9 43 -59q30 -71 86 -223q77 -195 137 -336q134 -318 134 -365q0 -20 -25 -36q-48 -31 -188 -31q-11 0 -17 2h-14q-43 5 -62 23.5t-36 74.5l-17 53l-47 5q-73 8 -209 8q-68 0 -82 -2l-65 -6l-21 -58q-19 -52 -31.5 -66t-46.5 -20
q-37 -6 -114 -6q-53 0 -77.5 2t-42 13t-17.5 34q0 42 59 207q73 212 135 399q120 365 182 398zM651 887q-35 71 -37 71q-6 0 -48 -108t-42 -127q0 -18 109 -18q20 0 27.5 0.5t21.5 2t19.5 7t5.5 14.5q0 31 -56 158z" />
    <glyph glyph-name="B" unicode="B" horiz-adv-x="1124" 
d="M193 1343q20 5 83 5q188 0 342 -25.5t244 -69.5q48 -25 85.5 -65.5t49.5 -81.5q11 -46 11 -64q0 -94 -82 -170l-45 -38l22 -11q103 -41 133 -184q11 -57 11 -78q0 -106 -79 -174t-247 -108q-172 -41 -375 -41h-14q-195 0 -232 49q-11 14 -14 69q-1 10 -4 351v163
q0 194 10 299q9 91 30 126.5t71 47.5zM635 989q0 51 -84 51q-41 0 -51.5 -11.5t-10.5 -55.5v-41h46q100 0 100 57zM618 686q-30 12 -69 12q-5 0 -41 -4q-25 -6 -25 -78v-24l4 -35l35 -2h17q65 0 106 35q23 16 23 41q0 34 -50 55z" />
    <glyph glyph-name="C" unicode="C" horiz-adv-x="1075" 
d="M537 1331q58 10 108 10q135 0 266 -41q60 -19 82.5 -36.5t22.5 -46.5q0 -23 -32 -109.5t-58 -136.5q-9 -21 -29 -21q-9 0 -51 17q-75 34 -158 34h-12q-6 -2 -10 -2q-60 -7 -118.5 -50t-84.5 -99q-23 -51 -23 -109q0 -103 58.5 -165t191.5 -62q78 0 148 31q25 14 57 14
q23 0 35 -12q17 -18 50 -90.5t38 -98.5q2 -4 2 -18q0 -35 -33 -55q-40 -28 -129 -56q-136 -47 -237 -47h-37q-123 6 -198 38t-153 112q-172 170 -172 440q0 64 9 98q32 159 167 292.5t300 168.5z" />
    <glyph glyph-name="D" unicode="D" horiz-adv-x="1206" 
d="M135 1305q52 8 238 8q184 0 286.5 -13.5t188.5 -50.5q79 -35 153 -105.5t97 -119.5q43 -90 43 -199q0 -153 -81.5 -290t-215.5 -209q-112 -56 -220.5 -79.5t-265.5 -23.5q-152 0 -208 15q-50 9 -61 19q-9 8 -13 24q-8 21 -8 88l4 114q2 55 2 144l12 608q2 41 10 53.5
t39 16.5zM586 979q-69 16 -84 16q-19 0 -24.5 -7t-6.5 -38q-8 -79 -8 -225q0 -158 8 -166q4 -4 23 -4q67 0 133 33t108 90q41 59 41 119q0 30 -12 57q-34 88 -178 125z" />
    <glyph glyph-name="E" unicode="E" horiz-adv-x="1021" 
d="M266 1305q196 6 377 6q179 0 217 -6q54 -8 67 -23t13 -72v-26v-54t-2 -39t-5 -31.5t-9.5 -20t-16 -17t-24.5 -10.5q-53 -17 -166 -17q-23 0 -41 2h-47q-33 2 -109 2q-48 0 -59.5 -8t-16.5 -41l-4 -30l154 -5q117 -3 160 -14q32 -10 44.5 -43t14.5 -98q2 -14 2 -45
t-18 -49l-21 -21h-309l-8 -31q-8 -21 -8 -30q0 -21 88 -21q98 0 139 2q47 2 180 2q43 0 56.5 -1t22.5 -7t15 -22q9 -21 9 -78q0 -129 -11 -178q-3 -19 -16 -29q-15 -9 -424 -12h-201q-210 0 -225 12q-24 15 -31 35q-4 16 -4 98q0 167 10.5 446t22.5 394q6 54 31 67
q27 10 153 13z" />
    <glyph glyph-name="F" unicode="F" horiz-adv-x="1005" 
d="M127 1343q25 5 127 5q119 0 160 -2l370 -5q88 0 107 -8q29 -11 35 -62q4 -30 4 -114q0 -65 -10 -88q-11 -25 -31 -35q-23 -10 -86 -10q-60 0 -189 6l-112 4q-42 0 -53 -8.5t-11 -38.5v-24q0 -52 23 -62q26 -11 155 -14q138 -6 164 -19q23 -13 23 -88v-28q0 -79 -6 -103
q-8 -25 -24 -31t-91 -10q-104 -8 -147 -10q-72 -6 -76 -10t-13 -152q-6 -126 -14 -149q-9 -28 -43 -37q-49 -14 -244 -14q-55 0 -65 8t-14 57q-5 83 -5 256q0 202 11 506q9 247 20 262q8 8 35 18z" />
    <glyph glyph-name="G" unicode="G" horiz-adv-x="1267" 
d="M567 1366q30 6 90 6q277 0 396 -102q18 -16 21 -23.5t1 -27.5q-1 -25 -40.5 -106t-57.5 -99q-17 -10 -19 -10q-6 0 -38 14q-121 53 -213 53q-73 0 -138.5 -41t-97.5 -108q-22 -49 -22 -82t2 -45q3 -76 26 -115q71 -111 242 -111q59 0 139 23q25 6 25 35q0 21 -9 30
q-14 5 -79 13q-74 5 -97.5 22t-23.5 70q0 35 2 47q9 81 41 92q24 8 223 8q196 0 217 -8q12 -3 27 -24q6 -12 18 -171.5t12 -230.5q0 -27 -2 -29q-14 -58 -157.5 -118.5t-298.5 -67.5h-41q-183 0 -330.5 75t-241.5 216q-42 63 -55.5 109t-13.5 128q0 126 37 228t104.5 172
t155.5 114.5t196 63.5z" />
    <glyph glyph-name="H" unicode="H" horiz-adv-x="1247" 
d="M154 1370q4 2 82 2h57q105 -3 127 -8q28 -6 41 -29q9 -21 12 -178q3 -111 6 -139q3 -25 15 -33q13 -8 147 -8q89 0 109 4l28 6v148q0 174 15 203t103 27q30 -1 48 -1q143 0 178 -14q31 -13 41 -35q8 -21 8 -123q0 -90 -6 -301q-12 -567 -30 -594q-17 -24 -48 -29
q-35 -6 -135 -6h-10q-44 0 -67.5 1t-46.5 5t-32 10.5t-17 20.5t-9.5 30.5t-1.5 45.5l4 117q2 33 2 112q0 47 -4 51q-9 9 -166 9q-27 0 -57.5 0.5t-41.5 2.5t-25.5 -1.5t-16.5 -5.5t-6.5 -17t-3 -26.5t0 -44t-2.5 -60.5q-2 -73 -9 -156q-6 -36 -20 -47q-12 -12 -96 -12h-76
h-56t-44.5 -1.5t-32 2t-24 3t-14.5 9t-9.5 14t-3.5 24t-1.5 31.5t1.5 45v57q0 191 2 273q6 543 28 589q4 15 25 19q2 1 8.5 2t9.5 2q2 1 5.5 1.5t6 1t3.5 1.5z" />
    <glyph glyph-name="I" unicode="I" horiz-adv-x="536" 
d="M170 1321q59 6 131 6q100 0 119 -8q31 -9 37 -31q12 -37 12 -321v-88q0 -391 -12 -490q-6 -54 -9.5 -76t-17 -37t-28.5 -16.5t-54 -1.5q-22 0 -45 2h-55q-136 4 -139 4q-25 3 -37 12l-19 17l4 338q6 555 31 641q7 26 23 35t59 14z" />
    <glyph glyph-name="J" unicode="J" horiz-adv-x="858" 
d="M426 1313q10 16 27 16l36 -4q61 -9 173 -12l120 -4l4 -31q7 -47 7 -201q0 -234 -18 -347.5t-79 -231.5q-123 -240 -366 -240q-89 0 -173.5 40t-84.5 73q0 26 29.5 120.5t41.5 106.5q15 18 33 12q52 -10 72 -10q98 0 137 73.5t39 209.5q0 54 -4 266q-2 25 -2 90q0 61 8 74
z" />
    <glyph glyph-name="K" unicode="K" horiz-adv-x="1198" 
d="M70 1313q5 5 39 14q31 8 151 8q112 0 143 -8q35 -9 35 -35v-28v-64q-2 -27 -2 -74q0 -139 8 -139q18 0 156 176q34 44 84 94l41 41l78 -4q90 -3 162 -10q78 -3 90 -12q10 -7 10 -19q0 -24 -68 -104q-219 -257 -219 -275q0 -8 -12 -20q-18 -15 -18 -27q0 -30 339 -471
q48 -67 48 -86q0 -12 -9 -18q-11 -7 -221 -10h-71q-29 -2 -58 -2q-73 0 -95 13t-54 75q-11 15 -13 20q-49 86 -96 160q-53 84 -61 84q-51 0 -51 -248v-22q0 -44 -12.5 -57t-55.5 -13q-24 0 -118 4t-114 8q-22 3 -38 19l-21 18l6 113q6 92 6 501q0 387 11 398z" />
    <glyph glyph-name="L" unicode="L" horiz-adv-x="974" 
d="M158 1343q22 5 131 5t137 -2q17 -4 33 -19l20 -20l-8 -254q-6 -153 -6 -279q0 -33 -2 -84q-4 -89 17.5 -103.5t152.5 -12.5q60 1 98 1h47q88 0 105.5 -14.5t17.5 -87.5v-43q0 -102 -8 -129q-7 -32 -27.5 -40.5t-83.5 -8.5l-139 4q-208 4 -270 4h-86h-47q-18 -2 -39 -2
q-80 0 -103 10t-26 39q-6 57 -9 342v99q-2 39 -2 83q0 234 25 404q7 60 21.5 80t50.5 28z" />
    <glyph glyph-name="M" unicode="M" horiz-adv-x="1406" 
d="M104 1296q18 11 142 11q121 0 147 -11q35 -14 254 -292q64 -82 70 -82q7 0 71 88q199 267 228 278q30 10 106 10q60 0 115 -6q6 0 12 -2q56 -6 64 -26q15 -27 18 -201v-31q2 -49 2 -262q0 -373 -10 -451q-9 -48 -31 -57q-23 -13 -114 -16h-29q-14 -2 -29 -2
q-114 0 -149 24l-19 13l2 215q0 46 2 75v58q0 80 -8 80q-7 0 -100 -140q-83 -128 -105 -143q-13 -10 -41 -10q-36 0 -51.5 13.5t-50.5 76.5q-24 47 -70.5 113.5t-54.5 66.5q-5 0 -8 -203l-2 -202l-25 -19q-21 -18 -41 -18l-43 4q-15 3 -86 6q-90 4 -133 8q-9 1 -24 2
q-39 3 -45.5 15.5t-6.5 84.5v27q0 57 7 456.5t12 416.5q10 24 24 32z" />
    <glyph glyph-name="N" unicode="N" horiz-adv-x="1189" 
d="M98 1321q20 4 84 4h47q105 -1 137.5 -14.5t75.5 -71.5l258 -344q9 -12 13 -8q3 3 12 131q13 198 21 235q12 55 47 67q24 9 120 8q31 -1 52 -1q86 0 110 -8q26 -9 33 -39q7 -55 10 -383q0 -64 2 -109v-96q0 -221 -12 -301q-11 -73 -38 -93q-20 -14 -93 -22q-12 -2 -14 -2
q-88 -10 -142 -10q-40 0 -51 4t-29 23q-27 26 -88 121q-204 306 -215 309q-5 0 -8 -96q-9 -294 -29 -314t-118 -20q-15 0 -27 2h-31q-110 7 -124 11q-24 7 -29 34q-2 10 -4 49q-7 82 -7 432q0 321 5 428q3 61 32 74z" />
    <glyph glyph-name="O" unicode="O" horiz-adv-x="1316" 
d="M483 1296q63 13 127 13q200 0 363.5 -82.5t230.5 -222.5q47 -103 47 -263q0 -99 -31 -177t-118 -165q-90 -88 -200 -132t-220 -44q-13 0 -23 2h-24q-237 13 -395 167.5t-170 377.5v33q0 305 288 448q66 32 125 45zM748 977q-39 20 -105 20q-11 0 -39 -4
q-102 -34 -153 -137q-19 -36 -19 -65q0 -25 2 -35q6 -60 25 -92q65 -112 200 -121h15q84 0 142 66.5t58 125.5q0 23 -2 31q-12 156 -124 211z" />
    <glyph glyph-name="P" unicode="P" horiz-adv-x="1067" 
d="M129 1288l21 23h120q138 0 230 -4.5t174.5 -17.5t135.5 -37.5t94 -62.5t69 -95q20 -43 24 -63t4 -85q0 -90 -14 -133q-74 -220 -301 -287q-58 -18 -145 -18h-86l-4 -25q-2 -5 -11 -104q-9 -75 -22 -98q-13 -19 -43 -19l-70 4q-199 9 -225 35q-12 12 -12 47q0 67 8 184
q14 195 14 424q0 189 8 246q6 61 31 86zM582 991q-38 23 -93 23q-24 0 -32 -8q-11 -11 -11 -109q0 -60 5 -90q3 -19 24 -19l29 5q49 7 81.5 41.5t32.5 78.5q0 36 -6.5 50.5t-29.5 27.5z" />
    <glyph glyph-name="Q" unicode="Q" horiz-adv-x="1280" 
d="M508 1323q58 10 117 10q118 0 206 -24.5t173 -83.5q196 -140 196 -439q0 -180 -80 -301q-35 -53 -35 -63q0 -8 35 -70q39 -68 39 -88q0 -13 -22 -35q-23 -23 -89.5 -63.5t-93.5 -48.5q-18 -6 -28 -6q-18 0 -33 18q-16 19 -37 66l-37 77l-98 -6h-25q-12 -2 -26 -2
q-189 0 -336 72q-67 32 -126.5 89.5t-88.5 119.5q-49 104 -49 241q0 125 43 226t149 190q118 95 246 121zM733 1030q-46 19 -96 19q-48 0 -88 -19q-107 -55 -107 -215q0 -121 70 -184q43 -43 106 -53q41 -6 41 4q0 5 -20 49q-18 41 -18 61q0 25 26 51q18 18 86 53t82 35
q10 0 35 -28l27 -31l-3 49q-6 69 -43.5 124.5t-97.5 84.5z" />
    <glyph glyph-name="R" unicode="R" horiz-adv-x="1071" 
d="M195 1290q46 4 163 4q94 0 151 -1t114.5 -4.5t91.5 -11t67.5 -18t57 -29t46 -41t48.5 -56.5q80 -106 80 -209q0 -30 -6 -64q-21 -131 -123 -207l-27 -22l55 -133q62 -154 62 -179q0 -2 -4 -14q-5 -8 -113 -23.5t-162 -15.5q-44 0 -62.5 17.5t-43.5 81.5q-53 140 -74 143
q-47 9 -55 -4q-6 -6 -15 -113q-5 -61 -10 -90q-6 -20 -22 -33q-19 -16 -84 -16h-88q-129 3 -133 4q-26 4 -33 16q-15 15 -15 80q0 58 9 131q15 143 30 598q3 175 19 191q12 12 76 18zM571 971q-35 15 -73 18q-32 4 -37 2q-9 -3 -12 -16q-7 -21 -7 -82q0 -82 9 -88t38 -6
q38 0 60.5 8.5t46.5 32.5q26 26 29 41q2 2 2 12q0 54 -56 78z" />
    <glyph glyph-name="S" unicode="S" horiz-adv-x="970" 
d="M428 1296q62 9 111 9q93 0 184 -16t117 -36q12 -12 12 -51q0 -53 -10.5 -125t-26.5 -84q-10 -10 -33 -10q-10 0 -86 12q-116 17 -147 17q-47 0 -66 -13q-18 -12 -18 -24q0 -30 125 -60q211 -52 274 -137q35 -50 41 -129q0 -10 2 -16v-17q0 -170 -112 -270
q-48 -44 -61 -52.5t-54 -21.5q-50 -18 -176 -18q-203 0 -340 55q-47 19 -79 48.5t-32 52.5q0 22 20.5 86.5t35.5 97.5q15 31 32 31t84 -31q107 -49 209 -49q48 0 62 20q14 17 14 27q0 7 -12 22q-14 14 -138 35q-98 13 -137.5 28.5t-77.5 53.5q-69 69 -69 178q0 104 41.5 189
t113.5 129q76 47 197 69z" />
    <glyph glyph-name="T" unicode="T" horiz-adv-x="1136" 
d="M125 1298q20 5 149 5q289 0 625 -13q130 -3 152 -22q20 -14 20 -54v-43q-3 -154 -31 -182l-20 -20l-137 6l-140 4l2 -301v-146q0 -160 -12 -200q-11 -34 -39 -70l-22 -22l-107 6q-157 9 -174 26q-7 7 -10 349q-3 339 -8 344t-119 14q-123 8 -166 27q-35 15 -35 79
q0 11 2 21v20q5 88 18.5 121.5t51.5 50.5z" />
    <glyph glyph-name="U" unicode="U" horiz-adv-x="1232" 
d="M137 1317q45 26 209 26q69 0 84 -6q23 -6 29 -22.5t6 -65.5l-4 -125q-6 -167 -6 -288q0 -143 8 -156q7 -20 32 -46.5t46 -37.5q27 -10 43 -10q86 0 139 121l22 45l5 229q3 140 10 207q5 58 17 81.5t46 35.5q38 14 146 14q43 0 68 -1t47.5 -6.5t33.5 -13.5t20.5 -24
t14 -35.5t8.5 -52.5q6 -47 6 -139q0 -237 -29 -386t-116 -247q-94 -107 -279 -154q-79 -20 -151 -20q-50 0 -105 12q-146 35 -244 123.5t-137 204.5q-38 104 -38 301q0 23 2 41v45q12 313 67 350z" />
    <glyph glyph-name="V" unicode="V" horiz-adv-x="1318" 
d="M930 1296q16 13 41 13q32 0 127 -17.5t127 -29.5q32 -13 35 -33q2 -4 2 -17q0 -28 -70 -196q-85 -206 -214 -458t-161 -275q-14 -11 -39 -15q-16 -2 -133 -2h-39h-46.5t-35.5 3.5t-27.5 4.5t-21 11.5t-17.5 16t-15.5 26.5t-17 33.5t-19.5 46.5q-5 14 -37 84
q-9 19 -66 143q-15 32 -36.5 78t-28.5 61q-177 384 -177 422q0 18 13 31q27 30 202 67q24 6 41 6q42 0 76 -51q33 -49 94.5 -180.5t112.5 -259.5l41 -100l29 61l35 76q6 15 12 29t9.5 22t4.5 10q47 106 121 252q63 126 78 137z" />
    <glyph glyph-name="W" unicode="W" horiz-adv-x="1748" 
d="M68 1245q21 53 223 53q78 0 90 -12q30 -35 104 -346l45 -176h2q9 0 91 227q62 171 90 234q17 34 31 46.5t42.5 18.5t90.5 6q90 0 122.5 -15t53.5 -73q21 -57 73 -282q29 -125 35 -135q8 -14 21 20q2 5 37 107q92 277 141 329q29 29 92 29q28 0 103.5 -6t101.5 -15
q31 -12 31 -47q0 -26 -41 -141q-92 -255 -142 -408q-91 -280 -116 -331q-18 -32 -33 -42t-49 -10q-26 0 -41 3q-203 15 -236 38q-19 9 -37 56q-17 44 -73 215q-65 188 -70 188q-28 0 -119 -301q-41 -133 -61 -153q-23 -23 -66 -23q-39 0 -150 10.5t-130 22.5q-25 14 -48 76
q-66 175 -159 536q-54 205 -54 273q0 8 5 28z" />
    <glyph glyph-name="X" unicode="X" horiz-adv-x="1140" 
d="M229 1266q110 39 150 39q29 0 55 -11q43 -19 133 -180q27 -49 31 -49l74 100q74 105 88 111q2 2 24 2q53 0 143.5 -11.5t108.5 -21.5q45 -23 45 -65q0 -17 -78.5 -141t-134.5 -197q-27 -38 -22 -43q71 -108 80 -119q141 -209 141 -274q0 -34 -31 -56
q-31 -21 -132.5 -56.5t-127.5 -35.5q-16 0 -33 10q-15 9 -73 119q-50 98 -78 129l-21 25l-73 -115q-103 -157 -148 -166h-10q-46 0 -143 36t-127 66q-19 19 -19 33q0 23 35 70q45 60 139 168q106 124 113 141q2 2 2 10q0 19 -41 99q-47 89 -102 174q-60 91 -60 129
q0 42 92 80z" />
    <glyph glyph-name="Y" unicode="Y" horiz-adv-x="1103" 
d="M233 1309q39 20 62 20t45 -22q19 -20 105.5 -146.5t91.5 -140.5q3 -6 6 -6q11 0 57 88q75 136 111 184q33 45 63 45q20 0 116 -18.5t124 -28.5q47 -15 47 -57q0 -48 -68 -187q-69 -142 -190 -333q-52 -82 -55 -312q-3 -105 -7 -135q-3 -24 -12 -33q-24 -18 -145 -18
q-154 0 -207 24q-25 9 -35 29q-12 24 -12 207v190l-54 95q-74 129 -161 252q-68 89 -68 137q0 25 19 47q39 47 167 119z" />
    <glyph glyph-name="Z" unicode="Z" horiz-adv-x="1028" 
d="M123 1282l102 4q114 4 236 4q170 0 299 -12q99 -10 147 -23q32 -11 41 -38q13 -44 13 -107q0 -91 -14.5 -121.5t-80.5 -81.5q-48 -37 -191 -174t-143 -145l187 -4q151 -3 188 -9q35 -9 49 -38q17 -39 17 -136q0 -57 -11 -81.5t-36 -30.5q-46 -11 -410 -17h-129
q-55 -2 -115 -2q-152 0 -172 4q-19 3 -37 27q-16 22 -16 135q0 80 5.5 114t15.5 49.5t45 47.5q74 74 254 234q118 103 118 110q0 6 -168 6q-167 0 -188 9q-31 12 -43 60t-12 93q0 62 28 98z" />
    <glyph glyph-name="bracketleft" unicode="[" horiz-adv-x="647" 
d="M227 1399q62 4 146 4h41q54 0 67.5 -10t24.5 -54q6 -27 6 -45q0 -35 -22.5 -48.5t-83.5 -18.5q-58 -3 -70 -15q-21 -27 -21 -292q0 -10 4 -222l13 -288q3 -15 14 -19q9 -3 51 -6q67 -6 82 -22t15 -84v-23q0 -44 -11 -57t-51 -13q-4 0 -10 0.5t-17.5 1.5t-21.5 2
q-40 3 -61 3q-124 10 -148 16q-33 9 -33 29q0 143 -2 219q-12 673 -12 778q0 110 8 123q9 25 25 31q18 7 67 10z" />
    <glyph glyph-name="backslash" unicode="\" horiz-adv-x="823" 
d="M227 1397q59 26 92 26q21 0 35 -14q17 -20 43 -131q6 -27 37 -127q28 -93 31 -109q37 -131 74 -272q47 -191 86 -317q61 -223 61 -234q0 -23 -13 -35t-50 -24q-59 -21 -103 -21q-20 0 -26 6q-16 26 -207 666q-77 253 -84 274q-68 213 -68 234q0 22 17 39q14 14 75 39z
" />
    <glyph glyph-name="bracketright" unicode="]" horiz-adv-x="702" 
d="M168 1360q13 8 180 8q138 0 162 -6q25 -6 39 -45q2 -2 2 -4q22 -74 22 -621q0 -287 -12 -401t-45 -123q-2 -2 -43 -2q-233 0 -289 16q-28 7 -36.5 21.5t-8.5 48.5q0 74 22.5 99.5t90.5 25.5l70 2l4 74q6 117 12 393l4 319q-30 8 -109 11q-69 1 -85.5 14t-16.5 63
q0 86 37 107z" />
    <glyph glyph-name="asciicircum" unicode="^" horiz-adv-x="1026" 
d="M436 1315q20 20 45 20q31 0 45 -2q57 -4 78 -15t51 -50q34 -50 135 -225.5t101 -186.5q0 -26 -69 -52t-93 -26t-43 25q-15 17 -72 110q-78 134 -90 134q-7 0 -102 -127q-97 -130 -109 -132h-4q-22 0 -84 13.5t-80 21.5q-14 8 -14 25t139 229.5t166 237.5z" />
    <glyph glyph-name="underscore" unicode="_" horiz-adv-x="1019" 
d="M164 205q13 8 115 8q516 0 565 -14q17 -4 23 -12t14 -35q10 -38 10 -74q0 -43 -14 -56.5t-58 -15.5q-8 -1 -270 -4h-160q-130 0 -188 4q-42 4 -58 18t-16 42t2 38q3 62 8 74q7 19 27 27z" />
    <glyph glyph-name="grave" unicode="`" horiz-adv-x="487" 
d="M193 1475q24 8 32 8q6 0 49 -19q69 -29 78 -118v-15q0 -32 -10.5 -54t-24.5 -22q-4 0 -6 2q-37 12 -37 41q0 30 -5 33.5t-19 -10.5t-41 -14q-43 0 -66 45q-12 24 -12 41q0 23 19.5 49t42.5 33z" />
    <glyph glyph-name="a" unicode="a" horiz-adv-x="1112" 
d="M729 1169q10 5 53 5q112 0 179 -15q45 -11 66.5 -33t31.5 -69q6 -27 6 -183q0 -351 -14 -477q-3 -35 -5 -53.5t-12 -35.5t-19 -23.5t-36.5 -13t-52.5 -8t-78 -3.5q-27 -2 -88 -2q-46 0 -60 9t-28 42t-23 33q-5 0 -63 -27q-84 -41 -164 -41q-61 0 -129.5 36t-124.5 93.5
t-92.5 136t-36.5 156.5q0 45 8 72q3 8 6 31l4 22q6 46 72 148q101 154 256 192q30 6 64 6q115 0 190 -57q41 -30 41 0q0 10 17.5 31.5t31.5 27.5zM633 852q-28 14 -68 14q-50 0 -89 -28.5t-52 -77.5q-6 -18 -6 -39q0 -54 43 -85.5t117 -31.5q53 0 62 10.5t17 73.5
q9 61 9 109q0 31 -4 38t-29 17z" />
    <glyph glyph-name="b" unicode="b" horiz-adv-x="1187" 
d="M86 1458q47 27 150 27h59h82q21 0 51 -11t37 -18q6 -6 15 -41t9 -59q0 -26 3 -96l4 -152l51 22q111 48 186 48q39 0 86 -13q219 -59 289 -313q14 -46 14 -135q0 -81 -14 -119q-44 -134 -131.5 -222.5t-196.5 -111.5q-30 -6 -65 -6q-131 0 -217 53q-10 5 -20.5 11.5t-15 9
t-5.5 2.5q-5 0 -17 -27t-32 -33h-9h-16q-8 -2 -23 -2q-23 0 -41 2h-45q-85 3 -124 13q-62 20 -68 86q-3 26 -6 168v28v29q-2 10 -2 33q-2 202 -15 520q-6 129 -6 188q0 99 33 119zM682 860q-20 14 -74 14q-44 0 -63 -2.5t-32.5 -18t-15.5 -38t-3 -74.5q-2 -16 -2 -57
q0 -35 16 -51t57 -29q41 -12 66 -12q4 0 6 2h6q45 11 70.5 50.5t25.5 74.5q0 23 -2 29q-6 82 -55 112z" />
    <glyph glyph-name="c" unicode="c" horiz-adv-x="1015" 
d="M467 1200q43 6 102 6q80 0 148 -14.5t151 -54.5q86 -44 86 -66q0 -14 -41 -81.5t-77 -110.5q-26 -33 -50 -33q-17 0 -53 22q-77 50 -147 50q-44 0 -70 -12.5t-53 -45.5q-60 -78 -60 -162q0 -21 9 -45q35 -86 143 -86q6 0 12 2h13q61 6 155 70q41 27 49 27q6 0 17 -7
q21 -12 62.5 -68t66.5 -108q24 -53 24 -67q0 -31 -47 -58q-147 -100 -391 -100q-52 0 -117 10q-119 26 -217.5 100.5t-126.5 170.5q-16 59 -16 143q0 64 8 100q28 124 106.5 223.5t155.5 143.5q61 36 158 51z" />
    <glyph glyph-name="d" unicode="d" horiz-adv-x="1142" 
d="M760 1450q32 4 100 4q127 0 154 -6q29 -6 49 -29l18 -20l-4 -537q-3 -488 -14 -545q-8 -22 -31 -32l-8 -4q-29 -11 -115 -11h-45q-115 3 -141 11q-35 9 -49 38q-1 4 -10 17q-9 6 -11 4l-59 -25q-52 -22 -143 -22q-85 0 -119.5 6t-83.5 31q-158 77 -185 235
q-10 68 -10 111q0 109 36.5 204.5t95.5 159t132.5 100t147.5 36.5q96 0 184 -58q20 -15 25 -10q3 3 12 139q9 138 16 158q9 36 58 45zM659 831l-26 19q-27 18 -62 18q-31 0 -73 -22q-70 -46 -70 -123q0 -51 35.5 -97t101.5 -46q29 0 64 12l30 10v229z" />
    <glyph glyph-name="e" unicode="e" horiz-adv-x="1056" 
d="M463 1243q52 10 106 10h27q83 -5 133 -29t121 -96q111 -111 141 -237q10 -52 10 -86q0 -126 -40 -141h-340q-162 0 -162 -2q0 -25 47 -53t110 -42q35 -6 64 -6q45 0 125 25q59 16 76 16q20 0 32 -12q15 -20 43.5 -75.5t28.5 -78.5q0 -45 -76 -88q-74 -44 -155 -63
t-191 -19q-136 0 -209 24t-157 107t-115 160t-31 182q0 115 34 209t128 174q98 85 250 121zM655 924q-26 51 -92 51q-45 0 -79 -26.5t-35 -67.5l-3 -25l101 -6l84 -4h10q8 0 10 2h4h4q9 3 9 24q0 26 -13 52z" />
    <glyph glyph-name="f" unicode="f" horiz-adv-x="980" 
d="M532 1327q36 4 54 4q198 0 288 -90q46 -43 46 -72q0 -46 -80 -135l-35 -39l-64 23q-52 18 -86 18q-31 0 -61.5 -29t-30.5 -61q0 -4 2 -6q3 -3 49 -12q61 -7 79 -29.5t18 -91.5q0 -143 -27 -164q-13 -13 -70 -16l-55 -4l-6 -35q-6 -56 -6 -135q0 -114 -10.5 -241.5
t-22.5 -148.5q-13 -22 -86 -22h-22q-75 0 -158 14q-59 9 -71 17q-21 14 -24 73q-1 24 -1 72v141l4 256l-33 7q-46 8 -59 23.5t-13 68.5q0 47 2 65q3 105 23 144q18 30 74 30q33 0 36 19q19 94 43.5 147t61.5 90t107.5 72t133.5 47z" />
    <glyph glyph-name="g" unicode="g" horiz-adv-x="1153" 
d="M356 1141q31 8 109 8q111 0 139 -14q32 -16 62 -37l30 -19q6 -3 13 8q20 38 38 46t84 10h37q134 0 183 -27q28 -15 34 -76q7 -68 7 -333q0 -307 -11 -428q-12 -99 -67 -209q-103 -210 -309 -256q-71 -15 -181 -15q-103 0 -161 13.5t-123 46.5q-54 25 -80 51
q-21 21 -21 41q0 14 2 18q6 42 50 124.5t61 82.5q15 0 80 -26q88 -39 164 -39q146 0 182 192l4 29l-37 -19q-96 -45 -211 -45q-242 0 -344 232q-51 111 -51 239q0 220 154 330q70 50 163 72zM666 813q-12 6 -35 6q-79 0 -123.5 -38t-44.5 -97q0 -28 12 -49q38 -74 125 -74
q34 0 68 12l20 7v79q0 138 -22 154z" />
    <glyph glyph-name="h" unicode="h" horiz-adv-x="1130" 
d="M111 1481q30 10 88 10q178 0 231 -35q25 -14 35 -51q8 -33 8 -135q0 -119 6 -119l8 4q17 9 19 10q13 9 20 11q65 32 144 32q20 0 26 -2q47 -6 109 -27t88 -40q51 -40 91 -117.5t60.5 -162.5t30.5 -154t10 -113v-39q-2 -20 -2 -51q-2 -49 -2 -103q0 -27 -10.5 -63
t-17.5 -45q-8 -8 -42 -18.5t-59 -10.5h-94q-138 0 -158 14l-18 13v141q0 246 -27 328q-12 37 -36 66.5t-41 29.5q-23 0 -50.5 -23.5t-44.5 -58.5q-15 -35 -18 -59q-5 -48 -8 -191q-3 -159 -13 -211q-8 -45 -23 -54t-61 -9h-8q-109 0 -172 14q-58 15 -69 29q-6 7 -10.5 17.5
t-7.5 28t-5.5 35t-4.5 47t-3 54.5t-1.5 67t-1 75t-1.5 88.5t-2 97.5q-8 445 -8 534q0 70 10 103q9 32 35 43z" />
    <glyph glyph-name="i" unicode="i" horiz-adv-x="522" 
d="M137 1391q51 53 119 53q67 0 116.5 -47.5t49.5 -104.5v-26q-4 -60 -47 -93.5t-115 -33.5h-12q-71 5 -115.5 42t-44.5 97q0 62 49 113zM223 1063q39 0 62 2h55h22q30 0 48 -6q17 -6 22 -13.5t6 -33.5q4 -54 4 -379q0 -342 -8 -350q-17 -17 -129 -17h-74q-109 3 -112 4
q-21 3 -33 15l-16 16l-2 277v86q0 358 24 385q11 11 131 14z" />
    <glyph glyph-name="j" unicode="j" horiz-adv-x="815" 
d="M391 1294q18 55 64 91t102 36q66 0 116 -48t50 -111q0 -46 -26 -84.5t-72 -51.5q-30 -10 -68 -10q-71 0 -121.5 38t-50.5 99q0 20 6 41zM403 1051q14 20 66 20h14q15 0 25 -2q6 -1 21 -2t22 -2t21.5 -2t19.5 -2q121 -9 131 -23q12 -15 12 -514q0 -69 -0.5 -102t-3 -85.5
t-8 -82t-15 -67.5t-25.5 -68t-38 -60q-67 -87 -199 -122q-57 -13 -104 -13q-95 0 -184.5 42.5t-89.5 80.5q0 19 37.5 88t60.5 92q27 27 45 27q12 0 41 -16q30 -21 53 -21q20 0 39.5 18t26.5 44q16 59 22 589q3 176 10 183z" />
    <glyph glyph-name="k" unicode="k" horiz-adv-x="1167" 
d="M160 1335q58 6 131 6q72 0 106.5 -8.5t46.5 -32.5q10 -23 15.5 -126t5.5 -193t2 -90q8 0 86 106q59 81 152 186.5t114 116.5q15 9 27 9q25 0 92 -44.5t111 -90.5q43 -49 43 -78q0 -14 -19 -43q-28 -38 -119.5 -148t-142.5 -162q-18 -19 -35.5 -37.5t-24 -25.5t-6.5 -8
l62 -70q57 -62 135 -156.5t86 -109.5l4 -14q0 -28 -127 -46q-113 -17 -129 -22q-33 -8 -53 -8q-31 0 -53 16q-19 16 -95 117q-73 98 -81 98q-9 0 -23 -20q-17 -24 -20 -111q-3 -90 -19 -106q-15 -15 -59 -15q-57 0 -80 2q-96 3 -156 15q-42 9 -54 26t-15 66q-4 66 -7 264v84
q0 399 19 584q5 39 19 52t61 17z" />
    <glyph glyph-name="l" unicode="l" horiz-adv-x="487" 
d="M109 1378q20 4 79 4h50q157 -3 172 -43q5 -36 8 -514v-266q0 -173 -4 -231q-3 -45 -23 -52q-26 -5 -135 -8q-20 -2 -76 -2q-18 0 -31.5 1t-24.5 2t-18.5 5.5t-13 6t-9 9.5t-5.5 10.5t-3 14.5t-1 16v20v22q0 22 2 45v53q0 28 2 51v53q0 103 -6 173q-15 184 -15 335
q0 275 52 295z" />
    <glyph glyph-name="m" unicode="m" horiz-adv-x="1679" 
d="M1202 1180q33 10 82 10q54 0 123 -36t111 -97q41 -61 63 -183q20 -110 29 -335q2 -23 2 -90q0 -129 -39 -168l-23 -23l-161 4q-28 0 -58 -0.5t-45 -2.5t-32 0.5t-23 3t-14 10.5t-9 17.5t-3.5 30t-1.5 41.5t0.5 59.5t-1.5 76.5q-6 213 -20 278q-15 68 -58 78q-4 2 -16 2
q-32 0 -63 -24t-44 -60q-14 -41 -14 -188q0 -83 8 -162q9 -83 9 -88q0 -32 -19 -41q-16 -7 -90 -10q-18 -2 -41 -2l-117 -5q-55 0 -65 19q-9 28 -47 395q-7 65 -21 119q-9 33 -31 33q-12 0 -43 -17q-48 -28 -63 -96q-20 -76 -23 -246q-1 -28 -1 -72q-1 -33 -1 -46.5
t-1.5 -33.5t-4 -26t-7 -15.5t-11.5 -11t-16.5 -4.5t-23 -3.5t-31.5 -0.5q-39 -1 -64 -2l-103 -4q-82 0 -100 35q-23 54 -23 604q0 38 -2 98q-1 32 -1.5 45.5t2 35t2.5 29t9 20.5t12.5 16t22 9.5t28.5 6.5t40 2t49 2h64h12q83 0 117 -12q30 -15 30 -49q0 -14 9 -14q7 0 45 24
q104 66 225 66q158 0 240 -97l26 -32l45 37q75 61 170 90z" />
    <glyph glyph-name="n" unicode="n" horiz-adv-x="1146" 
d="M639 1198q47 12 92 12q74 0 133 -23t98 -63.5t64 -86.5t41 -101q15 -56 18 -328v-129q0 -141 -12 -153q-9 -12 -33 -15t-147 -6l-168 -4l-8 18q-3 9 -12 199q-3 147 -15 236q-12 60 -47 98q-18 18 -49 18q-150 0 -150 -280q0 -80 2 -109q3 -58 3 -125q0 -52 -7 -59
q-7 -5 -112.5 -9.5t-184.5 -4.5q-53 0 -63.5 9t-11.5 64q-1 11 -4 371v203q0 36 -1 93q-2 44 0 74.5t4 49.5t13 29.5t26 15t43 5t65 0.5q39 -1 63 -1q114 0 137 -10q20 -9 20 -66q0 -49 6 -49q5 0 47 39q73 67 150 88z" />
    <glyph glyph-name="o" unicode="o" horiz-adv-x="1169" 
d="M438 1204q73 8 137 8q71 0 136 -10q153 -29 261.5 -121t133.5 -215q6 -27 6 -69q0 -125 -38 -220.5t-124 -179.5q-139 -137 -338 -137q-97 0 -187 30.5t-156.5 81t-116.5 113t-75.5 128.5t-25.5 126q0 34 10 99q68 329 377 366zM637 877q-23 10 -45 10q-28 0 -49 -15
q-74 -47 -74 -129q0 -29 16 -69q37 -76 117 -76q42 0 73.5 27t37.5 71q2 6 2 25q0 49 -22.5 94t-55.5 62z" />
    <glyph glyph-name="p" unicode="p" horiz-adv-x="1128" 
d="M98 1163q20 4 99 4h61q138 -3 158 -10q28 -9 28 -53q0 -35 9 -35l71 16q71 19 135 19q120 0 209 -53q34 -19 79.5 -69t70.5 -91q47 -89 47 -186q0 -177 -135 -312q-67 -67 -126 -95t-134 -28q-70 0 -203 43h-2q-11 0 -14 -159l-2 -164l-23 -21l-23 -18l-153 2
q-109 3 -133 6q-29 3 -37 14q-9 12 -12 103q-2 59 -2 477q0 566 6 584q9 17 26 26zM678 846q-24 18 -68 18q-23 0 -41 -6q-25 -10 -63 -43l-39 -37l8 -76q9 -71 17 -86q11 -34 83 -34q63 0 106.5 42t43.5 107q0 77 -47 115z" />
    <glyph glyph-name="q" unicode="q" horiz-adv-x="1196" 
d="M717 1098q13 26 33.5 35.5t72.5 9.5q61 0 86 -2q108 -3 154 -13q38 -9 47.5 -33t9.5 -114l-4 -223q-3 -156 -8 -344.5t-6 -227.5q-3 -252 -21 -274q-11 -16 -25 -19.5t-50 -3.5q-74 0 -183 9t-116 16q-22 22 -31 223l-4 148l-56 -6q-68 -7 -110 -7q-151 0 -237 46.5
t-142 160.5q-57 111 -57 236v22q6 135 69 234q32 53 101.5 95.5t152.5 59.5q34 9 60 9q27 0 97 -14t99 -31q27 -15 43 -15q12 0 25 23zM657 674q0 25 2 41v30q0 30 -8.5 41t-42.5 29q-37 16 -71 16q-57 0 -95.5 -38.5t-38.5 -98.5q0 -2 3 -8v-12q6 -54 48 -88.5t103 -34.5
q60 0 80 14q15 9 18 23q2 10 2 86z" />
    <glyph glyph-name="r" unicode="r" horiz-adv-x="948" 
d="M104 1157q10 19 27 31q18 12 88 12q72 0 137 -10.5t76 -26.5q14 -17 14 -28q0 -2 5 -2q11 0 57 22q85 43 156 43t147 -41t76 -86q0 -25 -34.5 -100t-61.5 -113q-22 -31 -43 -31q-4 0 -46 11q-37 12 -69 12q-70 0 -113 -55q-74 -95 -74 -410v-29q0 -63 -14.5 -78.5
t-79.5 -15.5q-17 0 -35 2h-45q-141 3 -163 19q-25 18 -27 34q-6 21 -6 154q0 199 9 430.5t19 255.5z" />
    <glyph glyph-name="s" unicode="s" horiz-adv-x="1005" 
d="M344 1227q47 8 115 8h37q86 -1 203.5 -31t138.5 -43q20 -14 20 -45q0 -32 -18 -95.5t-31 -92.5q-10 -23 -31 -23q-16 0 -63 21q-87 37 -146 37q-15 0 -28 -4t-19.5 -14t13.5 -27q21 -18 135 -33q94 -12 148 -44.5t89 -99.5q31 -57 31 -131q0 -88 -46.5 -169t-125.5 -130
q-86 -51 -221 -51q-131 0 -258.5 47.5t-200.5 126.5q-31 36 -31 51q0 24 76.5 105.5t89.5 81.5q7 0 51 -35q89 -68 187 -74h26q33 0 49.5 13.5t16.5 33.5q0 54 -154 78q-214 35 -278 166q-21 40 -21 88q0 88 72.5 174.5t173.5 110.5z" />
    <glyph glyph-name="t" unicode="t" horiz-adv-x="1048" 
d="M307 1450q36 4 150 4q115 0 143 -4q37 -7 43 -15t6 -40q0 -11 -4 -101l-4 -65l-2 -25l98 -2q16 -1 41 -1q69 -1 80.5 -25.5t11.5 -169.5v-35q0 -79 -13.5 -95t-80.5 -16h-131l-6 -43q-4 -50 -4 -61q0 -213 108 -213q23 0 60.5 22t44.5 31q5 8 14 8q18 0 47 -29
q32 -32 62 -78t30 -63q0 -25 -56.5 -69.5t-131.5 -79.5q-99 -45 -213 -45q-72 0 -123.5 24t-111.5 86q-46 46 -71 85.5t-43 116t-18 189.5v47v29q-2 6 -2 21q0 10 -4 14l-8 8q-2 6 -29 6q-12 0 -24 2h-33q-43 3 -55 6q-13 3 -23 19q-8 13 -8 53q0 56 2 76q9 146 10 147l9 29
l84 4q61 3 73 6q10 3 13 13q0 30 8.5 117t13.5 94q9 12 47 18z" />
    <glyph glyph-name="u" unicode="u" horiz-adv-x="1120" 
d="M117 1190q21 8 100 8q189 0 209 -20q4 -4 4 -45q0 -49 -4 -119t-4 -146q0 -159 23.5 -228t91.5 -69q57 0 88 60q38 71 41 321q6 207 14 215q11 11 85 21t142 10q112 0 129 -27q23 -35 23 -317q0 -520 -17 -563q-12 -31 -96 -31q-34 0 -135 8q-53 2 -94 13q-21 6 -30 15.5
t-17 29.5q-16 39 -35 16q-12 -14 -77.5 -41.5t-106.5 -34.5q-28 -4 -62 -4q-87 0 -160 36t-110 97q-15 28 -37 94q-16 69 -16 179v104q3 398 51 418z" />
    <glyph glyph-name="v" unicode="v" horiz-adv-x="1144" 
d="M793 1180q10 10 26 10q25 0 110.5 -25.5t114.5 -42.5q29 -19 29 -51t-45 -131q-3 -7 -27 -61q-39 -86 -55 -129q-51 -123 -127.5 -284t-93.5 -179q-16 -16 -31 -19t-76 -6h-30q-187 0 -234 35q-17 13 -89 178t-139 350t-67 238q0 44 99.5 79.5t165.5 35.5q18 0 30 -4
q27 -9 49 -60q18 -46 78 -237q49 -161 54 -166l6 8q14 18 30 57q29 63 119.5 227.5t102.5 176.5z" />
    <glyph glyph-name="w" unicode="w" horiz-adv-x="1685" 
d="M711 1180l26 26l90 -4q126 -6 147 -11q50 -10 69 -52q19 -41 38 -203q17 -116 17 -150q3 -36 10 -34q16 16 35 67q142 325 160 340q15 12 57 12q43 0 124 -11t105 -21q23 -13 23 -41l-4 -39q-28 -174 -191 -567q-3 -5 -6 -13t-7 -19t-7 -18q-51 -125 -78 -159
q-26 -33 -90 -33q-3 0 -49 4q-23 2 -54 2l-96 4q-41 0 -53 -4q-12 -6 -33 -6q-80 0 -96 49q-13 33 -31 160q-19 148 -26 168l-7 22l-12 -31q-128 -306 -149 -327q-19 -19 -66 -19q-55 0 -146.5 9t-109.5 16q-28 9 -53 76q-23 54 -78 258q-109 412 -109 477q0 16 25 25
q77 24 223 24q68 0 78 -10q10 -17 53 -229q47 -220 52 -220q9 0 147 338q47 116 72 144z" />
    <glyph glyph-name="x" unicode="x" horiz-adv-x="1157" 
d="M827 1169q16 13 35 13q39 0 134.5 -50t95.5 -88q0 -39 -146 -208l-117 -134l33 -36q111 -123 195 -252q35 -53 35 -90q0 -50 -50 -50l-168 -4h-49q-87 0 -110 9t-60 57q-32 39 -57 88q-20 45 -27 45t-53 -55q-91 -104 -127 -125q-23 -13 -61 -13q-61 0 -173 33.5
t-112 67.5q0 17 156 176q159 163 159 182t-51 105q-101 168 -104 231v39l39 12q110 36 237 39l54 2l32 -37q28 -29 66 -90q34 -55 37 -55l10 10q3 3 27 35q13 18 32 41q61 75 88 102z" />
    <glyph glyph-name="y" unicode="y" horiz-adv-x="1402" 
d="M279 1151q18 18 103.5 42t145.5 24q43 0 69 -15.5t50 -58.5q31 -68 90 -238q49 -137 54 -137q6 0 108 203q90 178 117 205q25 28 92 28q101 0 201 -47q32 -14 32 -43q0 -41 -116 -276q-166 -333 -361 -645q-63 -102 -106.5 -159.5t-102.5 -115.5q-122 -119 -303 -119
q-50 0 -119.5 13.5t-117.5 37.5q-54 25 -54 52q0 35 58 127t84 98q18 4 51 -8q27 -10 63 -10q117 0 205 147q27 46 27 70q0 37 -84 225q-78 172 -140.5 347t-62.5 218q0 21 17 35z" />
    <glyph glyph-name="z" unicode="z" horiz-adv-x="1048" 
d="M256 1167q40 4 166 4q431 0 512 -20q65 -15 65 -90v-12q0 -66 -24 -101q-20 -29 -170 -182l-182 -182l94 6q91 8 145 8q48 0 66 -21t18 -67v-25q-2 -12 -2 -30q-3 -85 -12 -119q-9 -37 -35 -53q-36 -22 -530 -25h-56q-202 0 -241 39q-17 17 -17 39q0 27 2 39q5 57 23 91
t67 77q61 49 163 160t102 128q0 10 -109 13q-81 3 -106 10q-22 6 -35 31t-13 61q0 46 15.5 109.5t34.5 85.5q20 23 59 26z" />
    <glyph glyph-name="braceleft" unicode="{" horiz-adv-x="757" 
d="M393 1354q16 5 109.5 3.5t107.5 -11.5q15 -12 15 -76v-60l-43 -6q-45 -5 -65 -19t-30 -51.5t-14 -121.5q-3 -92 -6 -113q-2 -17 -23 -51q-20 -26 -20 -37q0 -2 4 -6l14 -10q6 -4 17 -15q33 -29 33 -90q0 -20 -7 -74q-12 -88 -12 -129q0 -49 14.5 -66.5t59.5 -23.5
q47 -6 60.5 -23t13.5 -69q0 -51 -13 -61q-21 -15 -119 -15q-46 0 -79.5 4t-67.5 14.5t-55.5 34t-30.5 58.5q-14 43 -14 133q0 55 6 105t6 63q0 46 -66 57q-36 6 -45.5 18.5t-9.5 53.5v21l2 61l41 22q43 23 53.5 47t10.5 101v104q0 75 14 103q46 101 139 125z" />
    <glyph glyph-name="bar" unicode="|" horiz-adv-x="544" 
d="M166 1333q3 34 18 49t107 15q88 0 106 -11q13 -13 15 -40q0 -4 4 -172v-93q0 -207 -8.5 -510.5t-14.5 -330.5q-7 -28 -29.5 -36.5t-80.5 -8.5q-113 0 -138 14l-18 10l4 285q15 675 35 829z" />
    <glyph glyph-name="braceright" unicode="}" horiz-adv-x="763" 
d="M199 1343q7 1 26 3t27 2q79 0 130 -25t79 -86q31 -75 45 -190q11 -88 30 -125t54 -37q37 0 37 -92q0 -53 -11.5 -73t-48.5 -34q-63 -25 -78.5 -52t-23.5 -120q-11 -137 -68.5 -209t-160.5 -72q-54 0 -71.5 11.5t-25.5 50.5q-8 31 -8 61q0 26 13.5 40t50.5 24q29 8 40 21
t11 42q0 15 -10 90q-7 47 -7 70q0 113 111 160l31 14l-41 39q-37 36 -47.5 65.5t-10.5 100.5v57q0 56 -12 74.5t-55 30.5l-37 12q-23 12 -23 37q0 8 2 16v17q5 50 11 60t41 17z" />
    <glyph glyph-name="asciitilde" unicode="~" horiz-adv-x="923" 
d="M188 856q65 80 164 80q59 0 107 -37q56 -39 104 -39q41 0 82 35q21 18 31 18q7 0 50 -23t54 -32q11 -11 11 -22q0 -10 -7 -27q-20 -54 -92 -103t-129 -49q-52 0 -143 48q-50 24 -62 24q-23 0 -84 -49q-26 -16 -30 -16q-12 0 -62 36q-53 35 -53 45q0 13 20.5 53t38.5 58z
" />
    <glyph glyph-name="uni00A0" unicode="&#xa0;" 
 />
    <glyph glyph-name="sterling" unicode="&#xa3;" horiz-adv-x="993" 
d="M418 1303q32 4 82 4h41q96 -3 172 -23q67 -18 67 -47q0 -18 -25 -93.5t-42 -105.5q-6 -12 -27 -12q-20 0 -63 12q-27 9 -43 9q-11 0 -25 -7q-48 -22 -51 -82l-2 -30l65 4h35q41 0 50 -15.5t14 -85.5v-34v-19t0.5 -16t-1.5 -11.5t-2.5 -9t-7 -6t-11 -5t-17.5 -2.5
t-23.5 -2.5t-32.5 -2.5q-68 -4 -79 -10q-14 -7 -17 -44q0 -4 -2 -28l-2 -37h184q140 0 158 -2q30 -3 38.5 -13.5t8.5 -45.5q0 -51 -2 -74q-9 -170 -29 -193q-5 -8 -47 -8q-61 0 -88 2q-435 19 -510 25q-39 3 -49 29q-8 19 -8 145q0 448 57 600q70 191 234 234z" />
    <glyph glyph-name="yen" unicode="&#xa5;" horiz-adv-x="1243" 
d="M756 1186q38 56 57 71q18 15 29 15q12 0 94 -29t113 -43q57 -26 57 -67q0 -10 -10 -37q-20 -44 -193 -256q-47 -59 -47 -64t27 -8q27 -5 38 -19.5t11 -48.5q0 -28 -3 -38t-22.5 -16.5t-64.5 -6.5h-70v-27q0 -31 11 -39.5t53 -13.5q86 -9 98 -37q4 -20 4 -26
q0 -30 -11 -56.5t-24 -27.5q-20 -4 -84 -4q-56 -1 -72 -11t-16 -41q0 -63 -33 -77q-15 -9 -155 -9q-105 0 -123 6q-20 7 -24.5 18.5t-4.5 53.5t-11 49.5t-75 12.5q-51 3 -69 12q-19 10 -19 33q0 4 2 8v8q3 26 17 51q7 15 14 17q4 2 37 2h98q0 16 -2 30q-2 12 -2 29l-68 8
q-3 1 -9.5 2t-10.5 2q-11 1 -35 6q-11 2 -20 11q-7 7 -7 22q0 20 8 49t19 37q14 10 45 13l39 4l-74 120q-135 225 -135 267q0 34 39 51q44 21 135 35q52 8 72 8q52 0 82 -37q32 -48 84 -166q26 -69 33 -69q9 0 67 73q59 74 111 150z" />
    <glyph glyph-name="quoteleft" unicode="&#x2018;" horiz-adv-x="438" 
d="M219 1354q27 10 49 10q20 0 30.5 -7.5t6.5 -23.5q-3 -16 -20 -26q-21 -11 -22 -17.5t16 -25.5q18 -24 18 -39q0 -4 -10 -31q-24 -47 -64 -47q-31 0 -62.5 30t-31.5 54q0 36 43 84q33 33 47 39z" />
    <glyph glyph-name="quoteright" unicode="&#x2019;" horiz-adv-x="428" 
d="M168 1350q13 8 37 8q63 0 84 -41q8 -8 8 -37q0 -57 -31.5 -104.5t-72.5 -47.5q-1 0 -3 1t-5 2t-5 2q-16 10 -16 26q0 18 16 31l17 14l-23 13q-45 26 -45 59q0 4 2 8v6q9 44 37 60z" />
    <glyph glyph-name="quotedblleft" unicode="&#x201c;" horiz-adv-x="571" 
d="M123 1491q40 29 72 29q31 0 40.5 -35.5t-16.5 -57.5q-41 -36 -14 -38q22 0 49 -30.5t27 -68.5q0 -49 -36 -82.5t-65 -33.5q-12 0 -57 10q-88 28 -88 131q0 119 88 176zM383 1448q36 31 74 31q55 0 55 -45q0 -10 -14 -35q-16 -16 20 -47q31 -31 31 -86q0 -109 -123 -109
q-54 0 -88.5 38.5t-34.5 98.5q0 83 80 154z" />
    <glyph glyph-name="quotedblright" unicode="&#x201d;" horiz-adv-x="573" 
d="M127 1448q10 0 12 2t7.5 4t7.5 4h12q20 0 51 -21t43 -42q23 -44 23 -78q0 -88 -78 -154q-36 -28 -72 -28q-51 0 -51 39q0 24 12 36q18 18 -16 47q-35 30 -35 80q0 93 84 111zM334 1391q24 30 84 30q123 0 123 -127q0 -78 -46.5 -139t-103.5 -61h-8q-39 3 -39 41
q0 27 18 45l11 18q7 10 -6 23q-1 1 -9.5 5.5t-13.5 10.5q-39 29 -39 80q0 45 29 74z" />
    <glyph glyph-name="Euro" unicode="&#x20ac;" horiz-adv-x="1169" 
d="M616 1341q35 7 84 7q69 0 118.5 -10t117.5 -38q60 -25 84 -45q16 -16 16 -36q0 -28 -45 -115.5t-67 -87.5q-11 0 -60 22q-57 31 -114 31q-41 0 -68 -12.5t-61 -44.5q-33 -33 -33 -43q0 -8 94 -11q50 -2 70 -3.5t34 -10.5t14.5 -18t0.5 -37v-3.5v-3.5v-4v-4v-16
q-2 -23 -15.5 -32t-50.5 -9l-69 4q-16 1 -32.5 2t-25 1.5t-10.5 0.5q-33 0 -39 -6t-6 -10q0 -12 59 -12h19q78 0 102 -4q58 -7 58 -91q0 -42 -15 -58.5t-47 -16.5q-33 0 -47 2q-12 0 -20 2h-17q-41 0 -41 -13q0 -8 21 -26q36 -33 114 -33q53 0 115 21q38 14 49 14q9 0 15 -6
q5 -5 49.5 -107.5t44.5 -109.5q0 -12 -24 -36t-50 -36q-108 -63 -272 -63q-106 0 -208.5 35.5t-158.5 95.5q-59 59 -80 170q-9 56 -16 71q-11 14 -27 17q-45 6 -45 84q0 82 45 82q41 0 41 30q0 10 -37 19q-37 6 -43 12.5t-6 34.5q0 78 37 102q17 10 59 10h47l29 56
q63 131 136 198.5t177 87.5z" />
    <glyph glyph-name="CR" 
 />
    </font>
</defs>
</svg>
